<?xml version="1.0" encoding="UTF-8"?>
<svg width="84px" height="73px" viewBox="0 0 84 73" version="1.1" xmlns="http://www.w3.org/2000/svg" xmlns:xlink="http://www.w3.org/1999/xlink">
    <!-- Generator: Sketch 52.6 (67491) - http://www.bohemiancoding.com/sketch -->
    <title>Fill 1</title>
    <desc>Created with Sketch.</desc>
    <g id="Page-1" stroke="none" stroke-width="1" fill="none" fill-rule="evenodd">
        <g id="Desktop-HD-Copy" transform="translate(-128.000000, -481.000000)" fill="#FF5500">
            <path d="M189.354582,501.889231 C189.390627,501.457097 189.421887,501.003552 189.466135,500.541538 C189.421887,489.772591 180.709497,481 170.055777,481 C159.290858,481 150.578468,489.772591 150.533865,500.541538 C150.578468,501.00391 150.609728,501.457455 150.645418,501.889231 L128,482.796923 L128,509.076923 C128,515.052359 130.633681,520.739556 135.139442,524.575385 L170.055777,554 L204.860558,524.575385 C209.366319,520.739556 212,515.052359 212,509.076923 L212,482.796923 L189.354582,501.889231 L189.354582,501.889231 Z M158,501.04059 C158,493.826723 163.607375,488 170.555066,488 C177.392625,488 183,493.826723 183,501.04059 C183,505.389507 176.700244,513.109195 171.105727,518.542435 L170.555066,519 L169.894273,518.428044 C164.275579,513.08917 158,505.392784 158,501.04059 L158,501.04059 Z" id="Fill-1"></path>
        </g>
    </g>
</svg>