<?xml version="1.0" standalone="no"?>
<!DOCTYPE svg PUBLIC "-//W3C//DTD SVG 20010904//EN"
 "http://www.w3.org/TR/2001/REC-SVG-20010904/DTD/svg10.dtd">
<svg version="1.0" xmlns="http://www.w3.org/2000/svg"
 width="1710.000000pt" height="1710.000000pt" viewBox="0 0 1710.000000 1710.000000"
 preserveAspectRatio="xMidYMid meet">
<metadata>
Created by potrace 1.11, written by Peter Selinger 2001-2013
</metadata>
<g transform="translate(0.000000,1710.000000) scale(0.100000,-0.100000)"
fill="#000000" stroke="none">
<path d="M8339 15926 c-2 -2 -49 -7 -104 -11 -55 -3 -111 -8 -125 -10 -87 -11
-136 -17 -154 -21 -11 -2 -38 -6 -61 -10 -22 -3 -71 -12 -110 -21 -38 -8 -81
-17 -95 -19 -102 -19 -417 -113 -540 -161 -36 -14 -78 -31 -94 -37 -70 -26
-349 -161 -431 -208 -158 -90 -319 -195 -454 -296 -83 -62 -88 -67 -200 -161
-75 -63 -338 -323 -396 -391 -159 -187 -215 -260 -338 -445 -64 -96 -148 -238
-210 -357 -39 -75 -62 -124 -133 -283 -51 -116 -132 -353 -178 -525 -27 -103
-82 -367 -90 -440 -8 -69 -16 -132 -21 -165 -7 -47 -18 -251 -18 -334 0 -67 6
-161 18 -284 5 -43 -1 -42 -57 8 -18 17 -100 86 -183 155 -82 69 -152 127
-155 130 -3 3 -101 86 -219 184 -118 99 -224 187 -235 197 -12 10 -68 57 -126
105 -58 47 -127 106 -155 129 -48 42 -423 356 -930 779 -132 110 -242 203
-245 206 -5 5 -169 143 -205 171 -11 9 -51 43 -90 76 -38 32 -209 175 -380
318 -170 142 -312 261 -315 265 -3 3 -30 25 -60 50 -30 25 -60 49 -66 55 -6 5
-33 28 -59 50 -92 75 -430 358 -466 389 -20 17 -47 40 -60 51 -13 11 -94 78
-179 150 -85 71 -164 137 -175 146 -11 10 -69 58 -130 109 l-110 92 -3 -183
c-5 -372 4 -5426 11 -5474 4 -27 9 -75 12 -105 28 -265 104 -604 197 -875 126
-368 318 -742 542 -1055 81 -112 169 -226 185 -240 3 -3 24 -27 46 -55 50 -64
327 -341 425 -427 91 -78 108 -93 575 -483 204 -170 379 -317 390 -327 11 -9
112 -94 225 -188 113 -94 214 -179 225 -188 11 -10 90 -76 175 -147 85 -71
164 -137 175 -147 39 -33 474 -396 745 -623 151 -126 277 -232 280 -235 3 -3
113 -95 245 -205 132 -110 242 -202 245 -205 3 -3 99 -84 215 -180 115 -96
221 -185 235 -197 32 -27 978 -818 1005 -840 11 -9 36 -30 56 -47 49 -42 53
-46 404 -339 171 -143 321 -269 335 -281 14 -12 66 -55 115 -96 50 -41 92 -77
95 -80 3 -3 43 -37 90 -75 47 -38 87 -72 90 -75 6 -7 221 -188 284 -238 23
-19 52 -43 66 -55 14 -12 120 -101 235 -197 116 -96 212 -177 215 -180 3 -3
88 -75 190 -159 102 -85 194 -163 206 -173 21 -18 22 -18 95 43 41 34 88 73
104 88 26 22 105 88 170 143 11 9 85 71 165 138 80 67 165 138 189 158 24 21
80 68 125 106 104 88 104 87 281 235 83 69 152 128 155 131 3 3 131 111 285
240 154 129 282 237 285 240 3 3 115 97 250 209 135 113 247 207 250 210 3 3
26 23 52 44 26 21 53 43 60 50 7 7 67 57 133 112 66 55 131 110 145 122 27 23
397 334 474 398 27 22 58 48 70 59 11 10 41 35 66 55 25 20 50 41 56 46 6 6
33 29 60 51 27 23 139 118 249 210 110 93 220 185 244 204 24 19 48 40 55 46
6 6 67 57 136 115 364 305 1018 854 1110 932 58 49 114 96 125 106 11 9 115
96 230 193 329 276 737 619 791 663 26 22 59 50 73 62 33 29 29 25 179 151
509 427 574 483 733 647 235 241 419 483 598 784 103 173 229 438 299 626 33
91 71 205 73 220 1 6 5 17 10 26 7 15 72 256 83 311 42 214 51 262 60 336 16
121 20 154 32 317 4 66 9 5482 5 5539 -1 10 -29 -13 -292 -234 -108 -91 -232
-194 -275 -230 -43 -36 -90 -75 -104 -87 -14 -11 -171 -144 -350 -293 -179
-150 -345 -289 -370 -310 -47 -40 -250 -210 -285 -239 -11 -9 -81 -67 -155
-130 -74 -62 -144 -120 -155 -129 -25 -21 -131 -110 -165 -138 -76 -65 -122
-103 -165 -139 -27 -22 -53 -44 -59 -50 -12 -11 -97 -82 -331 -276 -55 -46
-102 -86 -105 -89 -3 -3 -86 -73 -185 -155 -99 -83 -241 -201 -315 -264 -74
-62 -144 -121 -155 -130 -11 -9 -130 -109 -265 -222 -207 -173 -364 -305 -619
-517 -24 -21 -49 -41 -55 -47 -34 -31 -183 -152 -195 -159 -10 -6 -12 -4 -8
10 25 87 26 506 2 664 -2 14 -6 48 -10 75 -7 65 -13 103 -20 140 -3 17 -12 65
-20 109 -107 572 -365 1152 -724 1629 -55 72 -112 146 -126 162 -147 167 -260
286 -380 395 -354 322 -768 581 -1218 759 -119 48 -409 141 -482 155 -11 2
-50 11 -86 20 -74 17 -87 19 -209 41 -96 17 -139 23 -225 31 -33 3 -71 8 -85
10 -28 6 -556 15 -561 10z m426 -1390 c54 -4 102 -9 105 -11 3 -1 32 -6 65 -9
33 -4 67 -9 75 -11 8 -2 29 -7 45 -10 17 -3 35 -7 40 -9 6 -1 26 -6 45 -10
311 -69 670 -236 935 -436 282 -212 502 -455 683 -757 53 -89 82 -145 162
-318 61 -131 143 -421 170 -605 17 -113 20 -133 25 -205 16 -213 7 -322 -39
-510 -62 -252 -257 -635 -523 -1030 -129 -191 -473 -649 -523 -695 -3 -3 -52
-61 -110 -130 -96 -115 -130 -154 -185 -215 -11 -13 -49 -55 -85 -95 -305
-340 -872 -913 -1029 -1038 l-64 -51 -61 51 c-152 126 -670 631 -886 864 -161
172 -266 289 -391 434 -41 47 -76 87 -79 90 -3 3 -22 26 -43 52 -21 26 -43 53
-50 60 -23 24 -202 251 -293 373 -444 593 -711 1105 -771 1480 -10 63 -10 315
-1 415 7 66 13 110 34 235 30 180 139 507 214 640 11 19 17 35 14 35 -4 0 -2
6 4 13 5 6 24 39 42 72 43 81 186 296 246 370 119 146 265 291 414 410 72 58
255 185 265 185 4 0 19 9 34 20 36 25 249 132 321 160 145 58 377 128 475 144
17 3 46 8 65 11 19 3 46 7 60 10 51 9 112 16 177 20 36 3 67 6 69 7 5 6 251 1
349 -6z"/>
</g>
</svg>
